<svg xmlns="http://www.w3.org/2000/svg" width="64" height="64" viewBox="0 0 64 64">
<defs>
  <filter id="ds" x="-30%" y="-30%" width="160%" height="160%">
    <feDropShadow dx="0" dy="1.2" stdDeviation="1.2" flood-color="#000000" flood-opacity="0.35"/>
  </filter>
  <linearGradient id="gPaper" x1="0" y1="0" x2="0" y2="1">
    <stop offset="0" stop-color="#F7FAFF"/>
    <stop offset="1" stop-color="#D9E1EA"/>
  </linearGradient>
  <linearGradient id="gMetal" x1="0" y1="0" x2="0" y2="1">
    <stop offset="0" stop-color="#E7EBF0"/>
    <stop offset="1" stop-color="#9AA3AD"/>
  </linearGradient>
  <linearGradient id="gMetal2" x1="0" y1="0" x2="0" y2="1">
    <stop offset="0" stop-color="#C6CDD6"/>
    <stop offset="1" stop-color="#6D7682"/>
  </linearGradient>
  <linearGradient id="gFolder" x1="0" y1="0" x2="0" y2="1">
    <stop offset="0" stop-color="#F8E07A"/>
    <stop offset="1" stop-color="#D9A84E"/>
  </linearGradient>
</defs>
<rect width="64" height="64" fill="none"/>
<g transform="translate(32 32) scale(1.42) translate(-32 -32)"><g filter="url(#ds)">
  <path d="M22 22h20" stroke="#000000" stroke-width="2.2" stroke-linecap="round"/>
  <path d="M26 18h12" stroke="#000000" stroke-width="2.2" stroke-linecap="round"/>
  <rect x="22" y="24" width="20" height="26" rx="5" fill="url(#gMetal)" stroke="#000000" stroke-width="2.2"/>
  <path d="M28 30v14M36 30v14" stroke="#6D7682" stroke-width="2.0" stroke-linecap="round" opacity="0.95"/>
</g></g>
<g filter="url(#ds)"><circle cx="46" cy="46" r="9.5" fill="#E34B4B" stroke="#000000" stroke-width="2.0"/><path d="M42 46c2-3 8-3 10 0-2 3-8 3-10 0z" fill="none" stroke="#fff" stroke-width="1.6" stroke-linejoin="round"/><path d="M43 43l8 8" stroke="#fff" stroke-width="1.6" stroke-linecap="round"/></g>
</svg>