<svg xmlns="http://www.w3.org/2000/svg" width="64" height="64" viewBox="0 0 64 64">
<defs>
  <filter id="ds" x="-30%" y="-30%" width="160%" height="160%">
    <feDropShadow dx="0" dy="1.2" stdDeviation="1.2" flood-color="#000000" flood-opacity="0.35"/>
  </filter>
  <linearGradient id="gPaper" x1="0" y1="0" x2="0" y2="1">
    <stop offset="0" stop-color="#F7FAFF"/>
    <stop offset="1" stop-color="#D9E1EA"/>
  </linearGradient>
  <linearGradient id="gMetal" x1="0" y1="0" x2="0" y2="1">
    <stop offset="0" stop-color="#E7EBF0"/>
    <stop offset="1" stop-color="#9AA3AD"/>
  </linearGradient>
  <linearGradient id="gMetal2" x1="0" y1="0" x2="0" y2="1">
    <stop offset="0" stop-color="#C6CDD6"/>
    <stop offset="1" stop-color="#6D7682"/>
  </linearGradient>
  <linearGradient id="gFolder" x1="0" y1="0" x2="0" y2="1">
    <stop offset="0" stop-color="#F8E07A"/>
    <stop offset="1" stop-color="#D9A84E"/>
  </linearGradient>
</defs>
<rect width="64" height="64" fill="none"/>
<g transform="translate(32 32) scale(1.25) translate(-32 -32)"><g filter="url(#ds)">
  <rect x="16" y="18" width="32" height="12" rx="4.5" fill="url(#gMetal)" stroke="#000000" stroke-width="2.2"/>
  <rect x="16" y="34" width="32" height="12" rx="4.5" fill="url(#gMetal)" stroke="#000000" stroke-width="2.2"/>
  <circle cx="22" cy="24" r="1.8" fill="#3185DA" stroke="#000000" stroke-width="1.2"/>
  <circle cx="22" cy="40" r="1.8" fill="#3185DA" stroke="#000000" stroke-width="1.2"/>
</g></g>
<g filter="url(#ds)"><circle cx="46" cy="46" r="9.5" fill="#3185DA" stroke="#000000" stroke-width="2.0"/><path d="M46 41l2 1 1-1 2 1-1 2 1 1v2l-1 1 1 2-2 1-1-1-2 1-2-1-1 1-2-1 1-2-1-1v-2l1-1-1-2 2-1 1 1z" fill="none" stroke="#fff" stroke-width="1.6" stroke-linejoin="round"/><circle cx="46" cy="46" r="2.2" fill="none" stroke="#fff" stroke-width="1.6"/></g>
</svg>