<svg xmlns="http://www.w3.org/2000/svg" width="64" height="64" viewBox="0 0 64 64">
<defs>
  <filter id="ds" x="-30%" y="-30%" width="160%" height="160%">
    <feDropShadow dx="0" dy="1.2" stdDeviation="1.2" flood-color="#000000" flood-opacity="0.35"/>
  </filter>
  <linearGradient id="gPaper" x1="0" y1="0" x2="0" y2="1">
    <stop offset="0" stop-color="#F7FAFF"/>
    <stop offset="1" stop-color="#D9E1EA"/>
  </linearGradient>
  <linearGradient id="gMetal" x1="0" y1="0" x2="0" y2="1">
    <stop offset="0" stop-color="#E7EBF0"/>
    <stop offset="1" stop-color="#9AA3AD"/>
  </linearGradient>
  <linearGradient id="gMetal2" x1="0" y1="0" x2="0" y2="1">
    <stop offset="0" stop-color="#C6CDD6"/>
    <stop offset="1" stop-color="#6D7682"/>
  </linearGradient>
  <linearGradient id="gFolder" x1="0" y1="0" x2="0" y2="1">
    <stop offset="0" stop-color="#F8E07A"/>
    <stop offset="1" stop-color="#D9A84E"/>
  </linearGradient>
</defs>
<rect width="64" height="64" fill="none"/>
<g transform="translate(32 32) scale(1.25) translate(-32 -32)"><g filter="url(#ds)">
  <circle cx="28" cy="30" r="14" fill="url(#gPaper)" stroke="#000000" stroke-width="2.2"/>
  <path d="M14 30h28" stroke="#3185DA" stroke-width="2.0" stroke-linecap="round" opacity="0.9"/>
  <path d="M28 16c-6 6-6 22 0 28" stroke="#3185DA" stroke-width="1.8" stroke-linecap="round" opacity="0.85"/>
  <path d="M28 16c6 6 6 22 0 28" stroke="#3185DA" stroke-width="1.8" stroke-linecap="round" opacity="0.85"/>
</g></g>
<g filter="url(#ds)">
  <circle cx="46" cy="40" r="7" fill="#3185DA" stroke="#000000" stroke-width="2.0"/>
  <circle cx="44" cy="39" r="2.6" fill="none" stroke="#fff" stroke-width="2.0"/>
  <path d="M46 41.5l2.8 2.8" stroke="#fff" stroke-width="2.0" stroke-linecap="round"/>
</g>
</svg>