<svg xmlns="http://www.w3.org/2000/svg" width="64" height="64" viewBox="0 0 64 64">
<defs>
  <filter id="ds" x="-30%" y="-30%" width="160%" height="160%">
    <feDropShadow dx="0" dy="1.2" stdDeviation="1.2" flood-color="#000000" flood-opacity="0.35"/>
  </filter>
  <linearGradient id="gPaper" x1="0" y1="0" x2="0" y2="1">
    <stop offset="0" stop-color="#F7FAFF"/>
    <stop offset="1" stop-color="#D9E1EA"/>
  </linearGradient>
  <linearGradient id="gMetal" x1="0" y1="0" x2="0" y2="1">
    <stop offset="0" stop-color="#E7EBF0"/>
    <stop offset="1" stop-color="#9AA3AD"/>
  </linearGradient>
  <linearGradient id="gMetal2" x1="0" y1="0" x2="0" y2="1">
    <stop offset="0" stop-color="#C6CDD6"/>
    <stop offset="1" stop-color="#6D7682"/>
  </linearGradient>
  <linearGradient id="gFolder" x1="0" y1="0" x2="0" y2="1">
    <stop offset="0" stop-color="#F8E07A"/>
    <stop offset="1" stop-color="#D9A84E"/>
  </linearGradient>
</defs>
<rect width="64" height="64" fill="none"/>
<g transform="translate(32 32) scale(1.18) translate(-32 -32)"><g filter="url(#ds)">
  <path d="M18 10h22l8 8v34H18z" fill="url(#gPaper)" stroke="#000000" stroke-width="2.2" stroke-linejoin="round"/>
  <path d="M40 10v8h8" fill="none" stroke="#000000" stroke-width="2.2" stroke-linejoin="round"/>
</g><g filter="url(#ds)">
  <path d="M14 14h22l8 8v32H14z" fill="url(#gPaper)" stroke="#000000" stroke-width="2.2" stroke-linejoin="round"/>
  <path d="M36 14v8h8" fill="none" stroke="#000000" stroke-width="2.2" stroke-linejoin="round"/>
</g><g filter="url(#ds)">
  <path d="M10 18h22l8 8v30H10z" fill="url(#gPaper)" stroke="#000000" stroke-width="2.2" stroke-linejoin="round"/>
  <path d="M32 18v8h8" fill="none" stroke="#000000" stroke-width="2.2" stroke-linejoin="round"/>
</g></g>
<g filter="url(#ds)"><circle cx="46" cy="46" r="9.5" fill="#E34B4B" stroke="#000000" stroke-width="2.0"/><path d="M43 43h6M44 43h4l-.5 6h-3z" fill="none" stroke="#fff" stroke-width="1.8" stroke-linejoin="round"/><path d="M44 42h4" stroke="#fff" stroke-width="1.8" stroke-linecap="round"/></g>
</svg>