<svg xmlns="http://www.w3.org/2000/svg" width="64" height="64" viewBox="0 0 64 64">
<defs>
  <filter id="ds" x="-30%" y="-30%" width="160%" height="160%">
    <feDropShadow dx="0" dy="1.2" stdDeviation="1.2" flood-color="#000000" flood-opacity="0.22"/>
  </filter>
  <linearGradient id="gPaper" x1="0" y1="0" x2="0" y2="1">
    <stop offset="0" stop-color="#FFFFFF"/>
    <stop offset="1" stop-color="#E6EBF2"/>
  </linearGradient>
  <linearGradient id="gMetal" x1="0" y1="0" x2="0" y2="1">
    <stop offset="0" stop-color="#F2F4F7"/>
    <stop offset="1" stop-color="#B9C0C8"/>
  </linearGradient>
  <linearGradient id="gMetal2" x1="0" y1="0" x2="0" y2="1">
    <stop offset="0" stop-color="#D6DCE3"/>
    <stop offset="1" stop-color="#8E969F"/>
  </linearGradient>
  <linearGradient id="gFolder" x1="0" y1="0" x2="0" y2="1">
    <stop offset="0" stop-color="#FFE88A"/>
    <stop offset="1" stop-color="#E2B153"/>
  </linearGradient>
</defs>
<rect width="64" height="64" fill="none"/>
<g transform="translate(32 32) scale(1.25) translate(-32 -32)"><g filter="url(#ds)">
  <circle cx="28" cy="30" r="10" fill="#FFE88A" stroke="#000000" stroke-width="2.2"/>
  <path d="M46 22c-6 0-10 4-10 10s4 10 10 10c-4 4-10 6-16 6-12 0-22-10-22-22S18 4 30 4c6 0 12 2 16 8z"
        fill="#1B6DDA" opacity="0.35"/>
</g></g>

</svg>